<svg xmlns="http://www.w3.org/2000/svg" viewBox="0 0 287.22 66.21"><g id="Layer_2" data-name="Layer 2"><g id="Layer_1-2" data-name="Layer 1"><path d="M122.84,28.18H110.13V53.32c0,2.15.54,3.59,1.61,4.33a7.33,7.33,0,0,0,4.19,1.1,22.59,22.59,0,0,0,4-.41,29.44,29.44,0,0,0,3.87-1l1.29,6.17a26.59,26.59,0,0,1-4.7,1.29,31.22,31.22,0,0,1-6,.55q-6.45,0-9.39-2.81c-2-1.87-2.95-4.58-2.95-8.15V28.18H95.67V22.1h6.45V8.29h8V22.1h12.71Z"/><path d="M134.07,26q2.22-1.11,4.15-2a28.84,28.84,0,0,1,3.87-1.43,28.53,28.53,0,0,1,3.95-.83,33.67,33.67,0,0,1,4.43-.27,26.1,26.1,0,0,1,6.58.78,13,13,0,0,1,5.16,2.62,12.16,12.16,0,0,1,3.36,4.84,20.28,20.28,0,0,1,1.2,7.5V65.38H160l-1-4.79h-.18a16.78,16.78,0,0,1-6.27,4.33A21.17,21.17,0,0,1,145,66.21a18.15,18.15,0,0,1-5.75-.87,14.13,14.13,0,0,1-4.56-2.49,11.08,11.08,0,0,1-3-3.91,12.33,12.33,0,0,1-1.05-5.16,11.62,11.62,0,0,1,5.38-10.36q5.38-3.54,14.23-3.55h8.29V36.19q0-4.69-2.4-6.4a10.93,10.93,0,0,0-6.44-1.7,22.66,22.66,0,0,0-5.48.78,30,30,0,0,0-7.05,3ZM158.66,45.4l-6.81.18q-6.91.2-9.81,2.44a6.76,6.76,0,0,0-2.9,5.48,7.48,7.48,0,0,0,.64,3.27,5.19,5.19,0,0,0,1.71,2.07A6.71,6.71,0,0,0,144,59.9a13.26,13.26,0,0,0,3,.33,14.85,14.85,0,0,0,6.17-1.43,14.63,14.63,0,0,0,5.52-4.56Z"/><path d="M203,30.21a25.16,25.16,0,0,0-5.52-2,22.8,22.8,0,0,0-5-.55c-3,0-5.13.53-6.54,1.61a5.11,5.11,0,0,0-2.12,4.28,4.53,4.53,0,0,0,1.47,3.36c1,.95,3,1.89,6.17,2.81l2.77.83a23.94,23.94,0,0,1,9.34,4.74,10.15,10.15,0,0,1,3.18,7.88,11.68,11.68,0,0,1-4.37,9.48q-4.38,3.59-12.2,3.59a41.3,41.3,0,0,1-8-.74,28.33,28.33,0,0,1-6.59-2l1.94-6.36a29.22,29.22,0,0,0,5.8,2.08,26.16,26.16,0,0,0,6.35.78,12.72,12.72,0,0,0,6.59-1.47,5.26,5.26,0,0,0,2.44-4.88,4.46,4.46,0,0,0-2.12-4.19A28.5,28.5,0,0,0,190.52,47L187.67,46q-6-1.93-8.89-4.83a10.17,10.17,0,0,1-2.9-7.51,10.76,10.76,0,0,1,1.2-5.06,11.39,11.39,0,0,1,3.27-3.87,16,16,0,0,1,4.92-2.44,21.45,21.45,0,0,1,6.27-.87,39,39,0,0,1,6.67.6,27.89,27.89,0,0,1,6.59,2Z"/><path d="M224.23,49.54V65.38h-8V0h8V40.7l17.4-18.6h10L233.9,40.33l18.6,25h-9.58L228.56,45.22Z"/><path d="M283.44,30.21a25.41,25.41,0,0,0-5.53-2,22.66,22.66,0,0,0-5-.55c-2.94,0-5.12.53-6.54,1.61a5.1,5.1,0,0,0-2.11,4.28,4.53,4.53,0,0,0,1.47,3.36q1.47,1.42,6.17,2.81l2.76.83A24.06,24.06,0,0,1,284,45.26a10.15,10.15,0,0,1,3.18,7.88,11.66,11.66,0,0,1-4.38,9.48q-4.36,3.59-12.2,3.59a41.37,41.37,0,0,1-8-.74,28.24,28.24,0,0,1-6.58-2L258,57.09a29.32,29.32,0,0,0,5.81,2.08,26.1,26.1,0,0,0,6.35.78,12.68,12.68,0,0,0,6.58-1.47,5.24,5.24,0,0,0,2.44-4.88,4.45,4.45,0,0,0-2.11-4.19A28.73,28.73,0,0,0,271,47L268.15,46q-6-1.93-8.88-4.83a10.14,10.14,0,0,1-2.9-7.51,10.76,10.76,0,0,1,1.19-5.06,11.51,11.51,0,0,1,3.27-3.87,16,16,0,0,1,4.93-2.44,21.38,21.38,0,0,1,6.26-.87,39,39,0,0,1,6.68.6,27.81,27.81,0,0,1,6.58,2Z"/><path d="M69.55,9h-15A6.21,6.21,0,0,0,42.7,7.92L21.65.63a5,5,0,0,0-6.34,3.06L.28,47.06A4.94,4.94,0,0,0,.5,50.87,5,5,0,0,0,3.37,53.4l19,6.52v0a5,5,0,0,0,5,5H54.65a1.28,1.28,0,0,0,.47-.1,1.09,1.09,0,0,0,.4-.27L74.15,45.93a1.09,1.09,0,0,0,.27-.4,1.1,1.1,0,0,0,.1-.47V14a5,5,0,0,0-5-5ZM48.44,6.55a3.73,3.73,0,1,1-3.73,3.73A3.73,3.73,0,0,1,48.44,6.55ZM4.17,51a2.46,2.46,0,0,1-1.44-1.26,2.48,2.48,0,0,1-.11-1.91L17.67,4.5a2.42,2.42,0,0,1,1.26-1.42A2.46,2.46,0,0,1,20.83,3L38.34,9h-11a5,5,0,0,0-5,5V57.29ZM24.84,60V14a2.48,2.48,0,0,1,2.48-2.49h15a6.21,6.21,0,0,0,12.17,0h15A2.48,2.48,0,0,1,72,14v29.8H58.37a5,5,0,0,0-5,5V62.44H27.32A2.48,2.48,0,0,1,24.84,60ZM70.28,46.3,55.89,60.69V48.78a2.48,2.48,0,0,1,2.48-2.48Z"/><path d="M31.05,22.7h8.69a1.24,1.24,0,1,0,0-2.48H31.05a1.24,1.24,0,0,0,0,2.48Z"/><path d="M31.05,28.91H62.1a1.24,1.24,0,1,0,0-2.48h-31a1.24,1.24,0,0,0,0,2.48Z"/><path d="M31.05,35.12H62.1a1.24,1.24,0,0,0,0-2.48h-31a1.24,1.24,0,1,0,0,2.48Z"/><path d="M31.05,41.33H62.1a1.24,1.24,0,0,0,0-2.48h-31a1.24,1.24,0,0,0,0,2.48Z"/><path d="M36,50h-5a1.25,1.25,0,0,0,0,2.49h5A1.25,1.25,0,0,0,36,50Z"/></g></g></svg>